<mxfile host="app.diagrams.net" modified="2021-09-21T11:15:30.065Z" agent="5.0 (Macintosh; Intel Mac OS X 10_15_7) AppleWebKit/537.36 (KHTML, like Gecko) Chrome/93.0.4577.82 Safari/537.36" etag="M9w45_KvarZcXunrbQJ1" version="13.8.9-1" type="github">
  <diagram name="Page-1" id="bd83a815-5ea8-2e97-e5ec-87c9f400f2fa">
    <mxGraphModel dx="1186" dy="658" grid="1" gridSize="10" guides="1" tooltips="1" connect="1" arrows="1" fold="1" page="1" pageScale="1.5" pageWidth="1169" pageHeight="826" background="none" math="0" shadow="0">
      <root>
        <mxCell id="0" style=";html=1;" />
        <mxCell id="1" style=";html=1;" parent="0" />
        <mxCell id="1516e18e63f93b96-1" value="&lt;table border=&quot;1&quot; width=&quot;100%&quot; cellpadding=&quot;1&quot; style=&quot;width: 100% ; height: 100% ; border-collapse: collapse&quot; align=&quot;center&quot;&gt;&lt;tbody&gt;&lt;tr style=&quot;background-color: #a7c942 ; color: #ffffff ; border: 1px solid #98bf21&quot;&gt;&lt;th&gt;比较&lt;/th&gt;&lt;th&gt;折线图&lt;/th&gt;&lt;th&gt;柱状图&lt;/th&gt;&lt;th&gt;饼状图&lt;/th&gt;&lt;th&gt;其它类型图&lt;/th&gt;&lt;th&gt;缩放滑动&lt;/th&gt;&lt;/tr&gt;&lt;tr style=&quot;border: 1px solid #98bf21&quot;&gt;&lt;td style=&quot;background-color: #a7c942 ; color: #ffffff ; border: 1px solid #98bf21&quot;&gt;MPAndroidChart&lt;/td&gt;&lt;td&gt;支持&lt;/td&gt;&lt;td&gt;支持&lt;/td&gt;&lt;td&gt;支持&lt;/td&gt;&lt;td&gt;&lt;span style=&quot;color: rgba(0 , 0 , 0 , 0.75) ; font-family: , &amp;#34;sf ui text&amp;#34; , &amp;#34;arial&amp;#34; , &amp;#34;pingfang sc&amp;#34; , &amp;#34;hiragino sans gb&amp;#34; , &amp;#34;microsoft yahei&amp;#34; , &amp;#34;wenquanyi micro hei&amp;#34; , sans-serif ; font-size: 16px ; background-color: rgb(255 , 255 , 255)&quot;&gt;气泡图,蜡烛图,&lt;/span&gt;雷达图&lt;br&gt;&lt;/td&gt;&lt;td&gt;&lt;br&gt;&lt;/td&gt;&lt;/tr&gt;&lt;tr style=&quot;background-color: #eaf2d3 ; border: 1px solid #98bf21&quot;&gt;&lt;td style=&quot;background-color: #a7c942 ; color: #ffffff ; border: 1px solid #98bf21&quot;&gt;HelloChart&lt;/td&gt;&lt;td&gt;支持&lt;/td&gt;&lt;td&gt;支持&lt;/td&gt;&lt;td&gt;支持&lt;/td&gt;&lt;td&gt;&lt;br&gt;&lt;/td&gt;&lt;td&gt;&lt;br&gt;&lt;/td&gt;&lt;/tr&gt;&lt;tr style=&quot;background-color: #eaf2d3 ; border: 1px solid #98bf21&quot;&gt;&lt;td style=&quot;background-color: rgb(167 , 201 , 66) ; border: 1px solid rgb(152 , 191 , 33)&quot;&gt;&lt;p class=&quot;p1&quot; style=&quot;margin: 0px ; font-stretch: normal ; line-height: normal ; font-family: &amp;#34;helvetica neue&amp;#34;&quot;&gt;&lt;font color=&quot;#ffffff&quot;&gt;WilliamChart&lt;/font&gt;&lt;/p&gt;&lt;/td&gt;&lt;td&gt;支持&lt;/td&gt;&lt;td&gt;支持&lt;/td&gt;&lt;td&gt;支持&lt;/td&gt;&lt;td&gt;&lt;br&gt;&lt;/td&gt;&lt;td&gt;&lt;br&gt;&lt;/td&gt;&lt;/tr&gt;&lt;/tbody&gt;&lt;/table&gt;" style="text;html=1;strokeColor=#c0c0c0;fillColor=#ffffff;overflow=fill;rounded=0;shadow=1;fontSize=14;fontColor=#000000;" parent="1" vertex="1">
          <mxGeometry x="120" y="110" width="1080" height="580" as="geometry" />
        </mxCell>
        <mxCell id="Zxat80xs1xVsX5ERjZgo-3" value="" style="endArrow=none;html=1;entryX=0;entryY=0;entryDx=0;entryDy=0;exitX=0.211;exitY=0.242;exitDx=0;exitDy=0;exitPerimeter=0;" edge="1" parent="1" source="1516e18e63f93b96-1" target="1516e18e63f93b96-1">
          <mxGeometry width="50" height="50" relative="1" as="geometry">
            <mxPoint x="280" y="210" as="sourcePoint" />
            <mxPoint x="460" y="280" as="targetPoint" />
          </mxGeometry>
        </mxCell>
        <mxCell id="Zxat80xs1xVsX5ERjZgo-5" value="图表" style="text;html=1;strokeColor=none;fillColor=none;align=center;verticalAlign=middle;whiteSpace=wrap;rounded=0;" vertex="1" parent="1">
          <mxGeometry x="150" y="250" width="60" height="30" as="geometry" />
        </mxCell>
        <mxCell id="Zxat80xs1xVsX5ERjZgo-6" value="功能" style="text;html=1;strokeColor=none;fillColor=none;align=center;verticalAlign=middle;whiteSpace=wrap;rounded=0;" vertex="1" parent="1">
          <mxGeometry x="200" y="180" width="60" height="30" as="geometry" />
        </mxCell>
      </root>
    </mxGraphModel>
  </diagram>
</mxfile>
